<?xml version="1.0" encoding="UTF-8" standalone="no"?>
<!-- Generator: Adobe Illustrator 17.0.0, SVG Export Plug-In . SVG Version: 6.00 Build 0)  -->

<svg
   xmlns:dc="http://purl.org/dc/elements/1.1/"
   xmlns:cc="http://creativecommons.org/ns#"
   xmlns:rdf="http://www.w3.org/1999/02/22-rdf-syntax-ns#"
   xmlns:svg="http://www.w3.org/2000/svg"
   xmlns="http://www.w3.org/2000/svg"
   xmlns:sodipodi="http://sodipodi.sourceforge.net/DTD/sodipodi-0.dtd"
   xmlns:inkscape="http://www.inkscape.org/namespaces/inkscape"
   version="1.1"
   id="svg2"
   inkscape:version="0.48.4 r9939"
   sodipodi:docname="Free-Basic-logo.svg"
   x="0px"
   y="0px"
   width="431.84451"
   height="155.43153"
   viewBox="128 155.5 431.84451 155.43153"
   enable-background="new 128 155.5 532 201"
   xml:space="preserve"><metadata
     id="metadata25"><rdf:RDF><cc:Work
         rdf:about=""><dc:format>image/svg+xml</dc:format><dc:type
           rdf:resource="http://purl.org/dc/dcmitype/StillImage" /></cc:Work></rdf:RDF></metadata><defs
     id="defs23" /><sodipodi:namedview
     borderopacity="1"
     bordercolor="#666666"
     gridtolerance="10"
     inkscape:cx="330.16448"
     pagecolor="#ffffff"
     id="namedview18"
     showgrid="false"
     inkscape:zoom="1.0627879"
     guidetolerance="10"
     objecttolerance="10"
     inkscape:cy="59.260003"
     inkscape:pageopacity="0"
     inkscape:pageshadow="2"
     inkscape:window-maximized="1"
     inkscape:current-layer="svg2"
     inkscape:window-width="1316"
     inkscape:window-height="750"
     inkscape:window-x="50"
     inkscape:window-y="18"
     showguides="false"
     inkscape:guide-bbox="true"
     fit-margin-top="0"
     fit-margin-left="0"
     fit-margin-right="0"
     fit-margin-bottom="0"><sodipodi:guide
       orientation="0,1"
       position="50.904495,125.38971"
       id="guide3002" /><sodipodi:guide
       orientation="0,1"
       position="36.790675,15.301896"
       id="guide3004" /></sodipodi:namedview><g
     id="_x23_fdfdfdff"
     transform="matrix(0.40556365,0,0,0.43546112,110.53834,109.57011)"
     style="fill:#ffffff"><path
       id="path13"
       inkscape:connector-curvature="0"
       d="m 483.039,105.584 c 7.267,-0.242 14.543,0 21.818,-0.058 -0.908,3.7 -2.615,7.124 -4.236,10.557 -6.775,15.257 -13.422,30.572 -20.332,45.771 -1.316,3.041 -2.878,6.008 -3.761,9.207 0.297,2.258 3.141,2.341 4.865,3.066 28.448,7.058 53.977,24.198 71.762,47.012 14.95,19.206 24.229,42.538 26.793,66.544 0.136,8.866 0.246,17.748 -0.076,26.614 -3.362,27.806 -15.544,54.636 -35.079,75.126 -18.736,19.706 -43.73,33.797 -70.718,39.038 -21.572,4.816 -44.349,3.608 -65.539,-2.408 2.012,-5.249 4.593,-10.266 6.656,-15.499 0.662,-1.117 1.104,-3.383 2.886,-2.908 6.554,1.092 13.023,2.95 19.713,3.025 7.08,0.108 14.169,0.25 21.232,-0.258 22.582,-2.466 44.409,-11.749 61.507,-26.456 7.759,-5.724 13.617,-13.44 19.297,-21.065 7.148,-10.124 12.267,-21.498 15.935,-33.247 4.126,-15.54 4.983,-31.922 2.419,-47.787 -4.525,-24.698 -17.556,-47.962 -36.836,-64.519 -12.437,-10.424 -27.005,-18.598 -42.804,-22.964 -3.803,-1.15 -7.675,-2.208 -11.673,-2.3 -39.697,89.65 -79.428,179.283 -119.193,268.916 -0.331,1.525 -2.021,1.417 -3.251,1.417 -6.775,-0.058 -13.549,-0.025 -20.315,-0.05 2.114,-3.783 3.769,-7.783 5.433,-11.774 7.53,-16.765 14.789,-33.647 22.421,-50.378 0.577,-1.575 1.588,-3.208 1.206,-4.925 -0.688,-1.325 -1.715,-2.433 -2.742,-3.5 -8.702,-8.083 -15.578,-17.857 -21.529,-28.006 -8.524,-15.29 -14.245,-32.147 -16.241,-49.487 -0.272,-9.091 -0.306,-18.207 -0.008,-27.306 3.056,-28.489 15.858,-55.961 36.132,-76.618 15.612,-16.298 35.733,-28.314 57.44,-35.005 -3.404,8.158 -7.216,16.148 -10.68,24.281 -0.815,2.408 -3.218,3.566 -5.323,4.7 -34.799,18.707 -57.822,56.894 -57.279,95.882 -0.475,23.256 7.751,46.32 21.538,65.102 2.683,3.333 5.162,6.899 8.532,9.624 35.249,-79.001 70.132,-158.176 105.313,-237.21 4.134,-9.541 8.49,-18.998 12.556,-28.564 0.599,-1.249 1.117,-2.615 2.161,-3.59 m -46.336,305.779 c 5.73,0.917 11.75,1.192 17.463,0.058 -5.806,-0.542 -11.656,-0.408 -17.463,-0.058 z"
       style="fill:#ffffff" /></g><text
     transform="scale(0.96436508,1.0369517)"
     font-size="36"
     id="text6"
     style="font-size:34px;font-style:normal;font-variant:normal;font-weight:bold;font-stretch:normal;fill:#ffffff;font-family:Montserrat;-inkscape-font-specification:Montserrat Bold"
     x="370.91226"
     y="228.91875">free basics </text>
<text
     transform="scale(0.96436508,1.0369517)"
     font-size="34"
     id="text8"
     style="font-size:30px;font-style:normal;font-variant:normal;font-weight:normal;font-stretch:normal;fill:#ffffff;font-family:Montserrat;-inkscape-font-specification:Montserrat"
     x="370.91226"
     y="263.63577">by</text>
<text
     font-size="32"
     id="text10"
     style="font-size:32px;fill:#0d627f;font-family:Montserrat-Bold"
     x="398.14282"
     y="277.37759" />
<g
     id="_x23_ffffffff"
     transform="matrix(0.25,0,0,0.25,390.35976,199.66912)"
     style="fill:#ffffff"><path
       id="path3105"
       inkscape:connector-curvature="0"
       d="m 78.715,185.423 c 9.149,-3.339 19.221,-3.016 28.685,-1.27 0.082,6.334 0.022,12.675 0.03,19.009 -4.882,-0.279 -9.989,-0.125 -14.519,1.894 -3,1.321 -5.377,4.235 -5.392,7.552 -0.09,3.714 0.007,7.427 -0.015,11.148 6.659,0.007 13.326,0.007 19.986,0 -0.667,6.936 -1.372,13.864 -2.062,20.799 -6.127,0.007 -12.254,0 -18.381,0 -0.007,18.818 -0.007,37.628 0,56.446 -8.009,0.044 -16.018,0 -24.028,0.029 -0.045,-18.825 0,-37.65 -0.022,-56.468 -5.497,-0.007 -10.994,-0.007 -16.491,0 -0.022,-6.936 -0.022,-13.871 0,-20.807 5.175,0 10.349,0.007 15.524,0 0.39,-8.719 -0.96,-18.01 3,-26.142 2.668,-5.643 7.76,-10.018 13.685,-12.19 z"
       style="fill:#ffffff" /><path
       id="path3107"
       inkscape:connector-curvature="0"
       d="m 343.867,185.665 c 8.362,-1.072 16.738,-2.055 25.123,-2.965 0,16.689 -0.008,33.386 0,50.076 4.582,-5.578 11.301,-9.658 18.718,-10.077 8.909,-0.499 18.396,1.894 25.003,8.007 4.882,4.521 7.627,10.818 8.984,17.166 3.007,12.704 2.512,26.458 -2.857,38.509 -3.675,8.147 -11.429,14.341 -20.338,16.168 -6.104,1.27 -12.554,0.851 -18.456,-1.094 -4.162,-1.416 -7.552,-4.257 -11.046,-6.767 -0.008,2.305 -0.015,4.609 -0.015,6.914 -8.377,0.007 -16.746,0 -25.123,0 0,-38.648 -0.015,-77.289 0.007,-115.937 m 35.157,56.703 c -3.9,0.983 -7.274,3.934 -8.444,7.736 -1.35,4.22 -1.462,8.697 -1.492,13.086 0.127,4.088 -0.09,8.374 1.695,12.19 1.605,3.567 4.462,6.884 8.362,8.088 4.05,1.086 8.639,0.903 12.314,-1.24 3.135,-1.835 5.227,-5.137 5.797,-8.638 1.095,-7.031 1.042,-14.223 -0.037,-21.247 -0.555,-3.574 -2.662,-7.002 -5.969,-8.734 -3.707,-1.938 -8.184,-2.166 -12.226,-1.241 z"
       style="fill:#ffffff" /><path
       id="path3109"
       inkscape:connector-curvature="0"
       d="m 603.005,185.724 c 8.362,-1.072 16.731,-2.077 25.123,-2.972 0.023,25.746 -0.037,51.492 0.03,77.238 7.732,-11.706 15.411,-23.449 23.023,-35.236 8.917,-0.147 17.833,-0.015 26.758,-0.066 -8.377,12.814 -16.761,25.629 -25.115,38.458 8.354,12.858 16.761,25.687 25.1,38.546 -8.924,-0.022 -17.841,0.095 -26.758,-0.059 -7.582,-11.787 -15.186,-23.574 -22.993,-35.214 -0.112,11.743 0,23.493 -0.06,35.236 -8.369,-0.007 -16.738,0 -25.115,0 0,-38.649 0,-77.29 0.007,-115.931 z"
       style="fill:#ffffff" /><path
       id="path3111"
       inkscape:connector-curvature="0"
       d="m 130.175,223.924 c 6.772,-2.172 14.264,-1.805 20.916,0.602 4.807,1.761 8.129,5.769 11.691,9.181 -0.015,-3.281 -0.015,-6.569 0,-9.849 7.822,0.022 15.644,-0.044 23.465,0.029 -0.037,25.922 0,51.837 -0.022,77.759 -7.814,0.015 -15.629,0 -23.45,0.007 0.007,-3.303 -0.045,-6.598 0.053,-9.901 -3.322,4.616 -7.829,8.858 -13.551,10.312 -8.669,1.996 -18.343,1.549 -26.06,-3.134 -7.694,-4.484 -12.291,-12.734 -14.084,-21.122 -2.595,-12.176 -2.475,-25.247 2.295,-36.916 3.366,-7.933 10.317,-14.421 18.747,-16.968 m 12.658,18.422 c -4.747,1.064 -8.242,5.24 -9.059,9.842 -1.065,6.605 -1.56,13.379 -0.525,20.021 0.592,3.971 2.715,7.948 6.397,9.952 5.812,3.281 14.331,2.532 18.538,-2.914 3.135,-3.926 2.685,-9.181 3,-13.856 -0.045,-5.196 0.187,-10.546 -1.252,-15.589 -2.28,-6.7 -10.627,-9.188 -17.099,-7.456 z"
       style="fill:#ffffff" /><path
       id="path3113"
       inkscape:connector-curvature="0"
       d="m 227.906,223.007 c 10.289,-0.888 21.44,-0.33 30.515,4.954 -1.387,5.747 -3.577,11.251 -5.317,16.895 -8.002,-2.048 -16.671,-4.778 -24.8,-1.717 -5.077,1.761 -8.174,6.767 -8.744,11.838 -0.937,7.42 -1.32,15.64 3.067,22.157 2.745,4.271 7.792,6.715 12.861,6.958 6.112,0.404 12.126,-1.262 17.736,-3.501 1.582,5.959 3.645,11.787 5.287,17.732 -5.572,1.857 -11.106,4.125 -17.046,4.58 -12.306,1.277 -25.895,-0.418 -35.674,-8.44 -8.437,-6.914 -11.346,-18.04 -11.856,-28.373 -0.39,-10.422 1.072,-21.592 7.634,-30.164 6.118,-8.046 16.302,-12.266 26.337,-12.919 l 0,0 z"
       style="fill:#ffffff" /><path
       id="path3115"
       inkscape:connector-curvature="0"
       d="m 266.092,237.399 c 5.46,-8.506 15.494,-13.409 25.55,-14.157 10.424,-0.983 21.905,-0.572 30.755,5.57 7.297,4.932 11.249,13.431 12.164,21.886 0.787,6.921 0.607,13.9 0.735,20.858 -16.453,0.125 -32.914,0.007 -49.368,0.066 0.06,2.84 0.472,5.82 2.22,8.183 2.167,3.09 5.947,4.609 9.599,5.233 10.537,1.284 21.096,-0.947 31.085,-4.103 1.575,5.387 2.895,10.84 4.447,16.234 -15.366,7.361 -33.402,7.589 -49.765,3.596 -7.589,-1.695 -14.444,-6.583 -18.126,-13.343 -4.327,-7.831 -4.71,-17.012 -4.747,-25.717 0.344,-8.277 0.711,-17.128 5.451,-24.306 m 22.483,6.635 c -2.632,3.031 -2.91,7.192 -3.097,10.987 9.067,0.007 18.126,0.015 27.192,0 0,-3.978 -0.015,-8.506 -2.992,-11.581 -5.602,-5.556 -15.824,-5.248 -21.103,0.594 z"
       style="fill:#ffffff" /><path
       id="path3117"
       inkscape:connector-curvature="0"
       d="m 462.813,222.985 c 11.931,-1.483 25.07,0.741 34.459,8.506 8.684,7.236 11.744,18.803 12.141,29.555 0.225,10.084 -1.582,20.821 -8.069,28.968 -5.932,7.691 -15.479,12.271 -25.22,12.954 -10.986,0.888 -22.865,-0.345 -31.984,-6.921 -8.857,-6.048 -13.664,-16.587 -13.806,-27.001 -0.232,-10.84 0.023,-22.619 6.359,-31.977 5.782,-8.499 16.079,-12.8 26.12,-14.084 m 2.453,19.368 c -5.122,1.13 -8.849,5.651 -9.599,10.642 -0.877,6.304 -0.75,12.726 -0.15,19.053 0.345,3.787 2.265,7.545 5.579,9.651 6.067,3.824 15.584,3.354 19.881,-2.833 3.457,-4.749 3.022,-10.833 3.322,-16.366 0.015,-5.475 0.037,-11.596 -3.772,-16.022 -3.592,-4.338 -9.944,-5.431 -15.261,-4.125 z"
       style="fill:#ffffff" /><path
       id="path3119"
       inkscape:connector-curvature="0"
       d="m 547.593,223.073 c 9.652,-1.372 19.806,-0.205 28.617,3.985 7.394,3.479 13.086,9.989 15.839,17.511 3.847,10.818 4.087,22.818 0.975,33.841 -2.587,8.954 -8.992,16.851 -17.593,20.924 -8.392,4.073 -18.126,4.411 -27.275,3.398 -11.331,-1.094 -22.498,-7.273 -27.86,-17.343 -4.47,-7.868 -4.635,-17.152 -4.2,-25.907 0.495,-8.389 1.972,-17.254 7.492,-23.999 5.752,-7.28 14.931,-11.015 24.005,-12.41 m 4.5,19.016 c -5.549,0.741 -9.847,5.416 -10.686,10.73 -0.93,6.319 -0.757,12.763 -0.195,19.111 0.337,4.132 2.595,8.161 6.337,10.224 5.917,3.141 14.459,2.752 18.748,-2.811 3.712,-4.558 3.427,-10.686 3.697,-16.183 0.015,-5.563 0.21,-11.765 -3.495,-16.381 -3.262,-4.286 -9.247,-5.607 -14.406,-4.69 z"
       style="fill:#ffffff" /></g><text
     transform="scale(0.97548784,1.0251281)"
     font-size="183.561"
     id="text21"
     style="font-size:152.37136841000000231px;font-style:normal;font-variant:normal;font-weight:normal;font-stretch:normal;fill:#ffffff;font-family:Montserrat;-inkscape-font-specification:Montserrat"
     x="116.43637"
     y="288.38312">N</text>
</svg>